<svg width="24" height="24" viewBox="0 0 24 24" fill="none" xmlns="http://www.w3.org/2000/svg">
<path class="icon-color-fill" fill="currentColor" d="M3.75 10.75C3.33579 10.75 3 11.0858 3 11.5C3 11.9142 3.33578 12.25 3.75 12.25L18.2955 12.25L12.2483 17.6925C11.9404 17.9696 11.9154 18.4438 12.1925 18.7517C12.4696 19.0596 12.9438 19.0846 13.2517 18.8075L20.7517 12.0575C20.9098 11.9152 21 11.7126 21 11.5C21 11.2874 20.9098 11.0848 20.7517 10.9425L13.2517 4.19254C12.9438 3.91544 12.4696 3.9404 12.1925 4.24828C11.9154 4.55617 11.9404 5.03038 12.2483 5.30748L18.2955 10.75L3.75 10.75Z"/>
</svg>
