<svg width="24" height="24" viewBox="0 0 24 24" fill="none" xmlns="http://www.w3.org/2000/svg">
<path class="icon-color-fill" fill="currentColor" d="M2 7V4C2 3.45 2.19583 2.97917 2.5875 2.5875C2.97917 2.19583 3.45 2 4 2H7V4H4V7H2ZM7 23H4C3.45 23 2.97917 22.8042 2.5875 22.4125C2.19583 22.0208 2 21.55 2 21V18H4V21H7V23ZM18 23V21H21V18H23V21C23 21.55 22.8042 22.0208 22.4125 22.4125C22.0208 22.8042 21.55 23 21 23H18ZM21 7V4H18V2H21C21.55 2 22.0208 2.19583 22.4125 2.5875C22.8042 2.97917 23 3.45 23 4V7H21Z"/>
<path class="icon-color-fill" fill="currentColor" d="M10.8509 9L8.6339 16H7.19677L5 9H6.54905L7.92903 13.744L9.28162 9H10.8509Z"/>
<path class="icon-color-fill" fill="currentColor" d="M13.3097 9V16H11.8321V9H13.3097Z"/>
<path class="icon-color-fill" fill="currentColor" d="M20 9V16H18.6641L16.4173 11.8661V16H14.9397V9H16.3363L18.5331 12.939V9H20Z"/>
</svg>
