<svg preserveAspectRatio="none" width="100%" height="100%" overflow="visible" style="display: block;" viewBox="0 0 17 17" fill="none" xmlns="http://www.w3.org/2000/svg">
<path class="icon-color-fill" id="Vector" d="M8.44025 17C6.27492 17 4.38775 16.2872 2.77875 14.8615C1.16975 13.4358 0.2435 11.6487 0 9.5H1.53075C1.78325 11.227 2.5605 12.6587 3.8625 13.7952C5.16433 14.9317 6.69025 15.5 8.44025 15.5C10.3903 15.5 12.0444 14.8208 13.4028 13.4625C14.7611 12.1042 15.4402 10.45 15.4402 8.5C15.4402 6.55 14.7611 4.89583 13.4028 3.5375C12.0444 2.17917 10.3903 1.5 8.44025 1.5C7.34792 1.5 6.32425 1.74267 5.36925 2.228C4.41408 2.71317 3.59158 3.38075 2.90175 4.23075H5.51725V5.73075H0.44025V0.653751H1.94025V3.023C2.75175 2.06533 3.72358 1.32208 4.85575 0.79325C5.98775 0.264416 7.18258 0 8.44025 0C9.61975 0 10.7249 0.223084 11.7557 0.66925C12.7864 1.11542 13.6851 1.72183 14.4518 2.4885C15.2184 3.25517 15.8248 4.15392 16.271 5.18475C16.7172 6.21542 16.9403 7.3205 16.9403 8.5C16.9403 9.6795 16.7172 10.7846 16.271 11.8152C15.8248 12.8461 15.2184 13.7448 14.4518 14.5115C13.6851 15.2782 12.7864 15.8846 11.7557 16.3307C10.7249 16.7769 9.61975 17 8.44025 17ZM11.4423 12.527L7.71925 8.80375V3.5H9.219V8.19625L12.496 11.473L11.4423 12.527Z"/>
</svg>
