<svg width="24" height="24" viewBox="0 0 24 24" fill="none" xmlns="http://www.w3.org/2000/svg">
<path fill-rule="evenodd" clip-rule="evenodd" d="M12 3C16.9706 3 21 7.02944 21 12C21 16.9706 16.9706 21 12 21C7.02944 21 3 16.9706 3 12C3 7.02944 7.02944 3 12 3ZM10.2004 9.73462V11.0823H11.094V15.0959H10.2004V16.4436H13.7747V15.0959H12.8811V9.73462H10.2004ZM11.9875 6.59985C11.6752 6.59985 11.4113 6.70746 11.1965 6.92212C10.9817 7.13692 10.8743 7.40071 10.8743 7.71313C10.8743 8.02563 10.9817 8.29175 11.1965 8.51147C11.4114 8.73114 11.6751 8.84106 11.9875 8.84106C12.2999 8.84098 12.5638 8.73112 12.7786 8.51147C12.9932 8.2918 13.1008 8.0255 13.1008 7.71313C13.1008 7.40076 12.9933 7.1369 12.7786 6.92212C12.5638 6.70736 12.2999 6.59994 11.9875 6.59985Z" fill="#0093DD"/>
</svg>
