<svg width="24" height="24" viewBox="0 0 24 24" fill="none" xmlns="http://www.w3.org/2000/svg">
<path class="icon-color-fill" d="M10.401 22C10.1648 22 9.96035 21.9207 9.78762 21.7621C9.61488 21.6036 9.51097 21.4062 9.47588 21.17L9.17022 18.7935C8.88817 18.699 8.59903 18.5668 8.3028 18.3968C8.00657 18.2267 7.74172 18.0445 7.50824 17.8502L5.30987 18.7773C5.0845 18.8758 4.86081 18.8873 4.63881 18.8117C4.41681 18.7361 4.24238 18.5944 4.11552 18.3866L2.53257 15.6296C2.41245 15.4217 2.37533 15.1997 2.42123 14.9636C2.46711 14.7274 2.58519 14.5371 2.77547 14.3927L4.67831 12.9535C4.65402 12.7969 4.63681 12.6397 4.62668 12.4818C4.61656 12.3239 4.6115 12.1667 4.6115 12.0101C4.6115 11.8603 4.61656 11.7082 4.62668 11.5536C4.63681 11.3991 4.65402 11.2301 4.67831 11.0466L2.77547 9.60726C2.58519 9.46287 2.46542 9.27259 2.41618 9.03641C2.36691 8.80025 2.40571 8.57826 2.53257 8.37044L4.11552 5.63364C4.24238 5.42582 4.41513 5.28411 4.63376 5.20853C4.85238 5.13296 5.07437 5.14443 5.29974 5.24296L7.49811 6.15996C7.75183 5.95887 8.02275 5.77499 8.31088 5.60833C8.59902 5.44164 8.88209 5.30769 9.16009 5.20648L9.47588 2.82998C9.51097 2.5938 9.61488 2.39643 9.78762 2.23787C9.96035 2.07929 10.1648 2 10.401 2H13.5892C13.8254 2 14.0315 2.07929 14.2076 2.23787C14.3837 2.39643 14.4893 2.5938 14.5244 2.82998L14.8301 5.21661C15.1459 5.33132 15.4316 5.46525 15.6874 5.61843C15.9431 5.77161 16.2012 5.95212 16.4617 6.15996L18.7006 5.24296C18.9259 5.14443 19.1479 5.13127 19.3665 5.20348C19.5852 5.27568 19.7579 5.41568 19.8848 5.62351L21.4677 8.37044C21.5946 8.57826 21.6334 8.80025 21.5841 9.03641C21.5349 9.27259 21.4151 9.46287 21.2248 9.60726L19.2815 11.0769C19.3193 11.2469 19.3399 11.4059 19.3432 11.5536C19.3466 11.7014 19.3483 11.8502 19.3483 12C19.3483 12.1431 19.3449 12.2885 19.3382 12.4362C19.3314 12.584 19.3071 12.753 19.2653 12.9433L21.1884 14.3927C21.3787 14.5371 21.4984 14.7274 21.5477 14.9636C21.597 15.1997 21.5582 15.4217 21.4313 15.6296L19.8483 18.3704C19.7215 18.5782 19.5443 18.7209 19.317 18.7985C19.0896 18.8761 18.8632 18.8657 18.6378 18.7672L16.4617 17.84C16.2012 18.0479 15.9354 18.2318 15.6641 18.3917C15.3928 18.5516 15.1148 18.6822 14.8301 18.7834L14.5244 21.17C14.4893 21.4062 14.3837 21.6036 14.2076 21.7621C14.0315 21.9207 13.8254 22 13.5892 22H10.401ZM10.9475 20.4211H13.0163L13.3949 17.6012C13.932 17.4609 14.4229 17.2615 14.8676 17.003C15.3122 16.7446 15.741 16.4123 16.154 16.0061L18.7694 17.1053L19.8058 15.3158L17.5224 13.5951C17.6101 13.3225 17.6699 13.0553 17.7016 12.7935C17.7333 12.5317 17.7491 12.2672 17.7491 12C17.7491 11.7261 17.7333 11.4615 17.7016 11.2065C17.6699 10.9514 17.6101 10.691 17.5224 10.4251L19.8261 8.6842L18.7896 6.89472L16.1439 8.01012C15.7917 7.63359 15.3696 7.30093 14.8777 7.01214C14.3858 6.72334 13.8881 6.51888 13.3848 6.39878L13.0528 3.57893H10.9637L10.6155 6.38864C10.0784 6.5155 9.58246 6.70984 9.12767 6.97164C8.67288 7.23345 8.23901 7.57084 7.82606 7.98381L5.21066 6.89472L4.17421 8.6842L6.4475 10.3785C6.35978 10.6282 6.29838 10.888 6.26329 11.1579C6.2282 11.4278 6.21066 11.7119 6.21066 12.0101C6.21066 12.2841 6.2282 12.5526 6.26329 12.8158C6.29838 13.079 6.35641 13.3387 6.43737 13.5951L4.17421 15.3158L5.21066 17.1053L7.81593 16C8.21538 16.4103 8.64251 16.7463 9.0973 17.0081C9.55209 17.2699 10.0548 17.471 10.6054 17.6114L10.9475 20.4211ZM12.0123 15.1579C12.8881 15.1579 13.6334 14.8505 14.2481 14.2358C14.8628 13.6211 15.1702 12.8758 15.1702 12C15.1702 11.1242 14.8628 10.3789 14.2481 9.76418C13.6334 9.14948 12.8881 8.84212 12.0123 8.84212C11.1257 8.84212 10.3777 9.14948 9.76838 9.76418C9.15908 10.3789 8.85443 11.1242 8.85443 12C8.85443 12.8758 9.15908 13.6211 9.76838 14.2358C10.3777 14.8505 11.1257 15.1579 12.0123 15.1579Z" fill="currentColor"/>
</svg>
