<svg width="42" height="49" viewBox="0 0 42 49" fill="none" xmlns="http://www.w3.org/2000/svg">
<rect x="2" y="2" width="38" height="38" rx="19" stroke="#90112C" stroke-width="4"/>
<path d="M29.4352 29.281H12.5648C11.147 29.281 10 28.134 10 26.7161V18.0977C10 16.6799 11.147 15.5329 12.5648 15.5329H29.4352C30.853 15.5329 32 16.6799 32 18.0977V26.7161C32 28.134 30.853 29.281 29.4352 29.281ZM12.5648 17.0304C11.9754 17.0304 11.4975 17.5083 11.4975 18.0977V26.7161C11.4975 27.3056 11.9754 27.7835 12.5648 27.7835H29.4352C30.0246 27.7835 30.5025 27.3056 30.5025 26.7161V18.0977C30.5025 17.5083 30.0246 17.0304 29.4352 17.0304H12.5648Z" fill="#3C2626"/>
<path d="M18.2202 23.3548H20.7053L19.9248 27.0029L23.7481 21.0768L21.2151 21.029L21.7886 17.8269L18.2202 23.3548Z" fill="#3C2626"/>
<path d="M15.4801 13H13.5206C13.1335 13 12.8197 13.3138 12.8197 13.7009V13.924C12.8197 14.3111 13.1335 14.6249 13.5206 14.6249H15.4801C15.8672 14.6249 16.181 14.3111 16.181 13.924V13.7009C16.181 13.3138 15.8672 13 15.4801 13Z" fill="#3C2626"/>
<path d="M28.4634 13H26.5039C26.1168 13 25.803 13.3138 25.803 13.7009V13.924C25.803 14.3111 26.1168 14.6249 26.5039 14.6249H28.4634C28.8505 14.6249 29.1643 14.3111 29.1643 13.924V13.7009C29.1643 13.3138 28.8505 13 28.4634 13Z" fill="#3C2626"/>
<rect x="1" y="33" width="40" height="16" rx="8" fill="#BA0000"/>
<path d="M8.07959 38.3081H6.8291V36.8354H9.76807V45.5H8.07959V38.3081ZM15.6855 36.6133C16.3626 36.6133 16.9805 36.8418 17.5391 37.2988C18.542 38.124 19.0435 39.4126 19.0435 41.1646C19.0435 42.4891 18.743 43.5661 18.1421 44.3955C17.8416 44.8102 17.4798 45.134 17.0566 45.3667C16.6208 45.6037 16.1659 45.7222 15.6919 45.7222C15.0021 45.7222 14.38 45.4937 13.8257 45.0366C12.827 44.2114 12.3276 42.8996 12.3276 41.1011C12.3276 39.8019 12.6281 38.7482 13.229 37.9399C13.8807 37.0555 14.6995 36.6133 15.6855 36.6133ZM15.6855 38.105C15.347 38.105 15.0423 38.2531 14.7715 38.5493C14.526 38.8159 14.3335 39.2052 14.1938 39.7173C14.0754 40.1701 14.0161 40.6398 14.0161 41.1265C14.0161 42.0194 14.1769 42.7747 14.4985 43.3926C14.6213 43.6338 14.7905 43.8369 15.0063 44.002C15.2052 44.1543 15.4316 44.2305 15.6855 44.2305C16.0241 44.2305 16.3309 44.0824 16.606 43.7861C16.8472 43.5195 17.0376 43.1281 17.1772 42.6118C17.2957 42.1632 17.355 41.6808 17.355 41.1646C17.355 40.2801 17.1963 39.5396 16.8789 38.9429C16.5827 38.3843 16.1849 38.105 15.6855 38.105ZM20.4985 43.6338C20.7821 43.6338 21.0233 43.7332 21.2222 43.9321C21.4211 44.131 21.5205 44.3701 21.5205 44.6494C21.5205 44.9329 21.4211 45.1742 21.2222 45.373C21.0233 45.5719 20.7842 45.6714 20.5049 45.6714C20.2214 45.6714 19.9801 45.5719 19.7812 45.373C19.5824 45.1699 19.4829 44.9266 19.4829 44.6431C19.4829 44.368 19.5824 44.131 19.7812 43.9321C19.9844 43.7332 20.2235 43.6338 20.4985 43.6338ZM25.7495 36.4736L26.9429 37.375L24.8926 40.0093C25.2523 39.8654 25.5908 39.7935 25.9082 39.7935C26.6234 39.7935 27.237 40.0474 27.749 40.5552C28.3161 41.1138 28.5996 41.8141 28.5996 42.6562C28.5996 43.2106 28.4684 43.7227 28.2061 44.1924C27.6263 45.2165 26.6572 45.7285 25.2988 45.7285C24.2663 45.7285 23.4517 45.4217 22.855 44.8081C22.3006 44.2368 22.0234 43.5492 22.0234 42.7451C22.0234 41.8861 22.3874 40.9699 23.1152 39.9966L25.7495 36.4736ZM25.3179 41.1392C24.8735 41.1392 24.4948 41.2979 24.1816 41.6152C23.8685 41.9326 23.7119 42.3135 23.7119 42.7578C23.7119 43.2148 23.8643 43.5999 24.1689 43.9131C24.4736 44.2262 24.8566 44.3828 25.3179 44.3828C25.7664 44.3828 26.1431 44.2262 26.4478 43.9131C26.7567 43.5957 26.9111 43.2191 26.9111 42.7832C26.9111 42.3092 26.7567 41.9178 26.4478 41.6089C26.1346 41.2957 25.758 41.1392 25.3179 41.1392ZM30.3657 36.8354L32.6826 42.6562L35.0249 36.8354H36.8594L33.1143 45.7158H32.2065L28.5249 36.8354H30.3657Z" fill="white"/>
</svg>
