<svg width="42" height="42" viewBox="0 0 42 42" fill="none" xmlns="http://www.w3.org/2000/svg">
<path d="M42 21C42 32.598 32.598 42 21 42C9.40202 42 0 32.598 0 21C0 9.40202 9.40202 0 21 0C32.598 0 42 9.40202 42 21ZM3.78 21C3.78 30.5103 11.4897 38.22 21 38.22C30.5103 38.22 38.22 30.5103 38.22 21C38.22 11.4897 30.5103 3.78 21 3.78C11.4897 3.78 3.78 11.4897 3.78 21Z" fill="#2F1C1C" fill-opacity="0.0588"/>
<path d="M21.0179 15.5007C23.5444 15.5007 26.071 15.4991 28.5975 15.5007C30.0959 15.5023 31.317 16.4388 31.69 17.8793C31.854 18.5128 31.7559 19.1334 31.5517 19.7451C31.0782 21.1623 30.6297 22.5892 30.1329 23.9984C29.6787 25.287 28.7663 26.1005 27.4223 26.3842C27.0444 26.4638 26.6497 26.4919 26.2631 26.4927C22.6843 26.5008 19.1047 26.4903 15.5259 26.5C13.73 26.5048 12.2951 25.4903 11.7477 23.766C11.3 22.3625 10.8361 20.963 10.3844 19.5594C9.79192 17.7186 10.935 15.8552 12.841 15.557C13.0677 15.5216 13.2992 15.5039 13.5291 15.5039C16.0251 15.4999 18.5219 15.5015 21.0179 15.5015V15.5007ZM21.0259 16.4983C18.5902 16.4983 16.1545 16.4967 13.7188 16.5007C13.4688 16.5007 13.2164 16.512 12.9696 16.549C11.763 16.729 10.9543 18.0273 11.3217 19.1913C11.771 20.6165 12.2421 22.0353 12.6762 23.4654C13.091 24.8304 14.2534 25.5739 15.5564 25.5643C19.2349 25.537 22.9142 25.5546 26.5927 25.5546C27.8057 25.5546 28.8379 24.8762 29.2301 23.7315C29.7599 22.1848 30.2502 20.6253 30.7245 19.061C30.9279 18.3906 30.7326 17.7676 30.2864 17.2346C29.8017 16.6543 29.1449 16.4975 28.4247 16.4983C25.9584 16.5015 23.493 16.4999 21.0267 16.4991L21.0259 16.4983Z" fill="#2F1C1C" fill-opacity="0.3098"/>
<path d="M20.9246 21.4461C18.5484 21.4461 16.1722 21.4461 13.7952 21.4461C13.4366 21.4461 13.2509 21.2926 13.2397 20.9991C13.2292 20.7298 13.3884 20.5329 13.6537 20.4967C13.7429 20.4847 13.8337 20.4887 13.9238 20.4887C18.5862 20.4887 23.2486 20.4887 27.911 20.4887C28.0107 20.4887 28.1128 20.4855 28.2108 20.5032C28.4657 20.5506 28.6449 20.7797 28.6055 21.0241C28.5645 21.2789 28.4215 21.4437 28.1425 21.4453C27.7518 21.4469 27.3604 21.4469 26.9697 21.4469C24.9544 21.4469 22.9391 21.4469 20.9238 21.4469L20.9246 21.4461Z" fill="#2F1C1C" fill-opacity="0.3098"/>
<path d="M21.4423 18.5232C21.4423 18.643 21.4528 18.7644 21.4399 18.8834C21.4126 19.1366 21.202 19.3287 20.9608 19.3343C20.7028 19.34 20.4994 19.1792 20.4704 18.9067C20.4455 18.6687 20.4463 18.426 20.4632 18.1872C20.4841 17.8898 20.6762 17.7202 20.9512 17.7226C21.2188 17.725 21.427 17.9348 21.4439 18.2234C21.4495 18.3231 21.4447 18.4236 21.4447 18.5232C21.4439 18.5232 21.4423 18.5232 21.4415 18.5232H21.4423Z" fill="#2F1C1C" fill-opacity="0.3098"/>
<path d="M27.1891 18.553C27.1891 18.6631 27.1948 18.7732 27.1883 18.8826C27.1723 19.1527 27.0211 19.3046 26.7591 19.3311C26.4898 19.3585 26.296 19.2154 26.2567 18.9646C26.2132 18.6824 26.2132 18.385 26.2478 18.1004C26.28 17.8375 26.489 17.7105 26.747 17.7282C27.0034 17.7459 27.1747 17.8858 27.1891 18.1631C27.1956 18.2925 27.1899 18.4228 27.1899 18.5522C27.1899 18.5522 27.1899 18.5522 27.1891 18.5522V18.553Z" fill="#2F1C1C" fill-opacity="0.3098"/>
<path d="M15.6432 18.5248C15.6432 18.6446 15.6513 18.7652 15.6416 18.8842C15.6191 19.1583 15.4366 19.3311 15.1786 19.3343C14.9246 19.3376 14.6987 19.1366 14.6842 18.8729C14.6714 18.6438 14.6714 18.4131 14.6834 18.184C14.6971 17.9123 14.9109 17.7194 15.1746 17.721C15.4383 17.7226 15.6199 17.8898 15.6432 18.1655C15.6537 18.2845 15.6448 18.4051 15.6448 18.5248C15.6448 18.5248 15.6448 18.5248 15.644 18.5248H15.6432Z" fill="#2F1C1C" fill-opacity="0.3098"/>
<path d="M18.5299 18.5546C18.5299 18.6647 18.5388 18.7749 18.5283 18.8842C18.5034 19.1551 18.3185 19.3303 18.0637 19.3351C17.8113 19.34 17.5974 19.1647 17.5773 18.9043C17.558 18.6559 17.5564 18.4043 17.5717 18.1559C17.5878 17.8962 17.7992 17.721 18.0556 17.7218C18.3137 17.7226 18.5018 17.8946 18.5267 18.1655C18.5388 18.2941 18.5291 18.4252 18.5291 18.5546H18.5299Z" fill="#2F1C1C" fill-opacity="0.3098"/>
<path d="M24.3137 18.5345C24.3065 18.6736 24.3169 18.8175 24.2872 18.9517C24.2317 19.2089 24.0629 19.352 23.7944 19.3311C23.5332 19.3118 23.3668 19.1631 23.3475 18.8962C23.3306 18.6575 23.3338 18.4171 23.3443 18.1776C23.3563 17.9147 23.5484 17.7338 23.8057 17.721C24.0613 17.7089 24.2655 17.8769 24.2976 18.1438C24.3129 18.2716 24.3 18.4027 24.3 18.5329C24.3041 18.5329 24.3089 18.5329 24.3129 18.5329L24.3137 18.5345Z" fill="#2F1C1C" fill-opacity="0.3098"/>
<path d="M18.5171 23.4091C18.5171 23.5193 18.5235 23.6302 18.5154 23.7395C18.4962 24.0032 18.3314 24.1583 18.0701 24.1688C17.8016 24.1792 17.6183 24.0458 17.5926 23.7773C17.5685 23.5289 17.5685 23.2757 17.5862 23.0273C17.6055 22.7564 17.8097 22.5956 18.0765 22.6069C18.3193 22.6173 18.4986 22.7926 18.5171 23.0482C18.5259 23.168 18.5187 23.2885 18.5187 23.4091H18.5171Z" fill="#2F1C1C" fill-opacity="0.3098"/>
<path d="M15.6296 23.4019C15.6296 23.512 15.636 23.6221 15.628 23.7323C15.6095 24.0072 15.4575 24.1567 15.1931 24.1696C14.9294 24.1816 14.718 24.0225 14.6947 23.758C14.6738 23.5193 14.6746 23.2773 14.6915 23.0377C14.7091 22.7861 14.9366 22.602 15.1842 22.6077C15.4439 22.6133 15.6143 22.7885 15.6304 23.0715C15.6368 23.1816 15.6312 23.2918 15.6312 23.4019C15.6304 23.4019 15.6296 23.4019 15.6288 23.4019H15.6296Z" fill="#2F1C1C" fill-opacity="0.3098"/>
<path d="M23.3531 23.3874C23.3531 23.2773 23.3459 23.1672 23.3547 23.057C23.3748 22.7934 23.5685 22.6109 23.8226 22.6069C24.0726 22.6029 24.2647 22.7596 24.2848 23.0225C24.3041 23.2709 24.3041 23.5241 24.2808 23.7717C24.255 24.0402 24.0854 24.176 23.8105 24.1688C23.5492 24.1623 23.3804 24.0104 23.3571 23.7467C23.3467 23.6278 23.3555 23.5072 23.3555 23.3866H23.3531V23.3874Z" fill="#2F1C1C" fill-opacity="0.3098"/>
<path d="M27.1771 23.4043C27.1771 23.5144 27.1795 23.6246 27.1771 23.7347C27.1706 24.0008 27.0171 24.1358 26.7695 24.1656C26.5018 24.1977 26.2993 24.0731 26.2607 23.8135C26.2205 23.5402 26.2165 23.25 26.2607 22.9783C26.3009 22.7291 26.4994 22.5828 26.7679 22.6125C27.0316 22.6414 27.1787 22.799 27.1803 23.0747C27.1803 23.1848 27.1803 23.295 27.1803 23.4051H27.1779L27.1771 23.4043Z" fill="#2F1C1C" fill-opacity="0.3098"/>
<path d="M20.497 23.3882C20.497 23.2676 20.4905 23.1471 20.4978 23.0273C20.5138 22.7644 20.665 22.6246 20.9198 22.6101C21.1754 22.5956 21.3611 22.7299 21.3925 22.9766C21.427 23.2524 21.4311 23.5402 21.3909 23.8143C21.3523 24.0763 21.1465 24.1929 20.8796 24.1664C20.6312 24.1422 20.505 23.9976 20.4978 23.7492C20.4946 23.6294 20.4978 23.5088 20.497 23.3882Z" fill="#2F1C1C" fill-opacity="0.3098"/>
<path d="M21.0179 15.5007C23.5444 15.5007 26.071 15.4991 28.5975 15.5007C30.0959 15.5023 31.317 16.4388 31.69 17.8793C31.854 18.5128 31.7559 19.1334 31.5517 19.7451C31.0782 21.1623 30.6297 22.5892 30.1329 23.9984C29.6787 25.287 28.7663 26.1005 27.4223 26.3842C27.0444 26.4638 26.6497 26.4919 26.2631 26.4927C22.6843 26.5008 19.1047 26.4903 15.5259 26.5C13.73 26.5048 12.2951 25.4903 11.7477 23.766C11.3 22.3625 10.8361 20.963 10.3844 19.5594C9.79192 17.7186 10.935 15.8552 12.841 15.557C13.0677 15.5216 13.2992 15.5039 13.5291 15.5039C16.0251 15.4999 18.5219 15.5015 21.0179 15.5015V15.5007ZM21.0259 16.4983C18.5902 16.4983 16.1545 16.4967 13.7188 16.5007C13.4688 16.5007 13.2164 16.512 12.9696 16.549C11.763 16.729 10.9543 18.0273 11.3217 19.1913C11.771 20.6165 12.2421 22.0353 12.6762 23.4654C13.091 24.8304 14.2534 25.5739 15.5564 25.5643C19.2349 25.537 22.9142 25.5546 26.5927 25.5546C27.8057 25.5546 28.8379 24.8762 29.2301 23.7315C29.7599 22.1848 30.2502 20.6253 30.7245 19.061C30.9279 18.3906 30.7326 17.7676 30.2864 17.2346C29.8017 16.6543 29.1449 16.4975 28.4247 16.4983C25.9584 16.5015 23.493 16.4999 21.0267 16.4991L21.0259 16.4983Z" stroke="#545F7C" stroke-width="0.25"/>
<path d="M20.9246 21.4461C18.5484 21.4461 16.1722 21.4461 13.7952 21.4461C13.4366 21.4461 13.2509 21.2926 13.2397 20.9991C13.2292 20.7298 13.3884 20.5329 13.6537 20.4967C13.7429 20.4847 13.8337 20.4887 13.9238 20.4887C18.5862 20.4887 23.2486 20.4887 27.911 20.4887C28.0107 20.4887 28.1128 20.4855 28.2108 20.5032C28.4657 20.5506 28.6449 20.7797 28.6055 21.0241C28.5645 21.2789 28.4215 21.4437 28.1425 21.4453C27.7518 21.4469 27.3604 21.4469 26.9697 21.4469C24.9544 21.4469 22.9391 21.4469 20.9238 21.4469L20.9246 21.4461Z" stroke="#545F7C" stroke-width="0.25"/>
<path d="M21.4423 18.5232C21.4423 18.643 21.4528 18.7644 21.4399 18.8834C21.4126 19.1366 21.202 19.3287 20.9608 19.3343C20.7028 19.34 20.4994 19.1792 20.4704 18.9067C20.4455 18.6687 20.4463 18.426 20.4632 18.1872C20.4841 17.8898 20.6762 17.7202 20.9512 17.7226C21.2188 17.725 21.427 17.9348 21.4439 18.2234C21.4495 18.3231 21.4447 18.4236 21.4447 18.5232C21.4439 18.5232 21.4423 18.5232 21.4415 18.5232H21.4423Z" stroke="#545F7C" stroke-width="0.25"/>
<path d="M27.1891 18.553C27.1891 18.6631 27.1948 18.7732 27.1883 18.8826C27.1723 19.1527 27.0211 19.3046 26.7591 19.3311C26.4898 19.3585 26.296 19.2154 26.2567 18.9646C26.2132 18.6824 26.2132 18.385 26.2478 18.1004C26.28 17.8375 26.489 17.7105 26.747 17.7282C27.0034 17.7459 27.1747 17.8858 27.1891 18.1631C27.1956 18.2925 27.1899 18.4228 27.1899 18.5522C27.1899 18.5522 27.1899 18.5522 27.1891 18.5522V18.553Z" stroke="#545F7C" stroke-width="0.25"/>
<path d="M15.6432 18.5248C15.6432 18.6446 15.6513 18.7652 15.6416 18.8842C15.6191 19.1583 15.4366 19.3311 15.1786 19.3343C14.9246 19.3376 14.6987 19.1366 14.6842 18.8729C14.6714 18.6438 14.6714 18.4131 14.6834 18.184C14.6971 17.9123 14.9109 17.7194 15.1746 17.721C15.4383 17.7226 15.6199 17.8898 15.6432 18.1655C15.6537 18.2845 15.6448 18.4051 15.6448 18.5248C15.6448 18.5248 15.6448 18.5248 15.644 18.5248H15.6432Z" stroke="#545F7C" stroke-width="0.25"/>
<path d="M18.5299 18.5546C18.5299 18.6647 18.5388 18.7749 18.5283 18.8842C18.5034 19.1551 18.3185 19.3303 18.0637 19.3351C17.8113 19.34 17.5974 19.1647 17.5773 18.9043C17.558 18.6559 17.5564 18.4043 17.5717 18.1559C17.5878 17.8962 17.7992 17.721 18.0556 17.7218C18.3137 17.7226 18.5018 17.8946 18.5267 18.1655C18.5388 18.2941 18.5291 18.4252 18.5291 18.5546H18.5299Z" stroke="#545F7C" stroke-width="0.25"/>
<path d="M24.3137 18.5345C24.3065 18.6736 24.3169 18.8175 24.2872 18.9517C24.2317 19.2089 24.0629 19.352 23.7944 19.3311C23.5332 19.3118 23.3668 19.1631 23.3475 18.8962C23.3306 18.6575 23.3338 18.4171 23.3443 18.1776C23.3563 17.9147 23.5484 17.7338 23.8057 17.721C24.0613 17.7089 24.2655 17.8769 24.2976 18.1438C24.3129 18.2716 24.3 18.4027 24.3 18.5329C24.3041 18.5329 24.3089 18.5329 24.3129 18.5329L24.3137 18.5345Z" stroke="#545F7C" stroke-width="0.25"/>
<path d="M18.5171 23.4091C18.5171 23.5193 18.5235 23.6302 18.5154 23.7395C18.4962 24.0032 18.3314 24.1583 18.0701 24.1688C17.8016 24.1792 17.6183 24.0458 17.5926 23.7773C17.5685 23.5289 17.5685 23.2757 17.5862 23.0273C17.6055 22.7564 17.8097 22.5956 18.0765 22.6069C18.3193 22.6173 18.4986 22.7926 18.5171 23.0482C18.5259 23.168 18.5187 23.2885 18.5187 23.4091H18.5171Z" stroke="#545F7C" stroke-width="0.25"/>
<path d="M15.6296 23.4019C15.6296 23.512 15.636 23.6221 15.628 23.7323C15.6095 24.0072 15.4575 24.1567 15.1931 24.1696C14.9294 24.1816 14.718 24.0225 14.6947 23.758C14.6738 23.5193 14.6746 23.2773 14.6915 23.0377C14.7091 22.7861 14.9366 22.602 15.1842 22.6077C15.4439 22.6133 15.6143 22.7885 15.6304 23.0715C15.6368 23.1816 15.6312 23.2918 15.6312 23.4019C15.6304 23.4019 15.6296 23.4019 15.6288 23.4019H15.6296Z" stroke="#545F7C" stroke-width="0.25"/>
<path d="M23.3531 23.3874C23.3531 23.2773 23.3459 23.1672 23.3547 23.057C23.3748 22.7934 23.5685 22.6109 23.8226 22.6069C24.0726 22.6029 24.2647 22.7596 24.2848 23.0225C24.3041 23.2709 24.3041 23.5241 24.2808 23.7717C24.255 24.0402 24.0854 24.176 23.8105 24.1688C23.5492 24.1623 23.3804 24.0104 23.3571 23.7467C23.3467 23.6278 23.3555 23.5072 23.3555 23.3866H23.3531V23.3874Z" stroke="#545F7C" stroke-width="0.25"/>
<path d="M27.1771 23.4043C27.1771 23.5144 27.1795 23.6246 27.1771 23.7347C27.1706 24.0008 27.0171 24.1358 26.7695 24.1656C26.5018 24.1977 26.2993 24.0731 26.2607 23.8135C26.2205 23.5402 26.2165 23.25 26.2607 22.9783C26.3009 22.7291 26.4994 22.5828 26.7679 22.6125C27.0316 22.6414 27.1787 22.799 27.1803 23.0747C27.1803 23.1848 27.1803 23.295 27.1803 23.4051H27.1779L27.1771 23.4043Z" stroke="#545F7C" stroke-width="0.25"/>
<path d="M20.497 23.3882C20.497 23.2676 20.4905 23.1471 20.4978 23.0273C20.5138 22.7644 20.665 22.6246 20.9198 22.6101C21.1754 22.5956 21.3611 22.7299 21.3925 22.9766C21.427 23.2524 21.4311 23.5402 21.3909 23.8143C21.3523 24.0763 21.1465 24.1929 20.8796 24.1664C20.6312 24.1422 20.505 23.9976 20.4978 23.7492C20.4946 23.6294 20.4978 23.5088 20.497 23.3882Z" stroke="#545F7C" stroke-width="0.25"/>
</svg>
