<svg width="42" height="42" viewBox="0 0 42 42" fill="none" xmlns="http://www.w3.org/2000/svg">
<path fill-rule="evenodd" clip-rule="evenodd" d="M16.1437 21.3218L16.2648 21.3818L16.3707 21.4568L16.4614 21.5318L16.5371 21.6219L16.5976 21.7269L16.643 21.8319L16.6732 21.9519L16.6732 22.072L16.6732 22.207L16.643 22.327L16.5976 22.4471L16.5371 22.5521L16.4614 22.6421L16.3858 22.7171L16.295 22.7921L16.1891 22.8522L16.0681 22.8972L15.947 22.9272L15.8109 22.9272C15.6445 22.9272 15.4932 22.9272 15.3268 22.9272C15.1906 22.9272 15.0545 22.9272 14.9183 22.9272L14.525 22.9272L14.3132 22.9272L13.9047 22.9272L13.7988 22.9272L13.587 22.9272L13.4811 22.9272L13.3752 22.9272L13.2693 22.9272L13.1029 22.9272L12.9516 22.8822L12.8154 22.8372L12.6944 22.7771L12.5885 22.6871L12.5129 22.5821L12.4523 22.4621L12.407 22.327L12.3767 22.177L12.3767 22.012L12.3767 21.9669L12.3767 21.9219L12.3767 21.8769L12.3767 21.8319L12.3767 21.7869L12.3767 21.7419L12.3767 21.6969L12.3767 21.6069L12.3767 21.5618L12.3767 21.4718L12.3918 21.3818L12.3918 21.3068L12.4372 21.2318L12.4675 21.1567L12.4977 21.0817L12.5431 21.0217L12.5885 20.9617L12.6339 20.9017L12.6944 20.8567L12.7549 20.8117L12.8154 20.7817L12.8759 20.7516L12.9516 20.7216L13.0272 20.7216L13.1029 20.6916L13.1785 20.6916L13.2542 20.6916L13.3298 20.6916L13.4054 20.7066L13.5719 20.7366L13.7383 20.7666L13.9047 20.7967L14.0711 20.8267L14.2375 20.8567L14.4039 20.8867L14.5703 20.9167L14.7368 20.9467L14.9032 20.9767L15.0696 21.0067L15.7958 21.1717L15.826 21.1717L15.8563 21.1717L15.8865 21.1717L15.9168 21.1717L15.947 21.1717L15.9773 21.1717L16.0076 21.1717L16.0378 21.1717L16.0681 21.1717L16.0983 21.1717L16.2345 21.2168L16.1437 21.3218ZM18.3676 21.6069L23.7837 21.6069L23.8593 21.6219L23.9198 21.6519L23.9803 21.6819L24.0257 21.7269L24.0711 21.7719L24.1014 21.8319L24.1316 21.8919L24.1316 21.9669L24.1467 22.042L24.1467 22.5521L24.1316 22.6271L24.1014 22.6871L24.0711 22.7471L24.0257 22.7921L23.9803 22.8372L23.9198 22.8672L23.8593 22.8972L23.7837 22.8972L23.708 22.9272L18.292 22.9272L18.2315 22.8972L18.171 22.8672L18.1104 22.8372L18.0651 22.7921L18.0197 22.7471L17.9894 22.6871L17.9592 22.6271L17.9592 22.5521L17.944 22.4771L17.944 21.9669L17.9592 21.8919L17.9894 21.8319L18.0197 21.7719L18.0651 21.7269L18.1104 21.6819L18.171 21.6519L18.2315 21.6219L18.292 21.6219L18.3676 21.6069ZM16.7186 15.3503L25.357 15.3503L25.5537 15.3503L25.7352 15.3803L25.8865 15.4253L26.0227 15.4854L26.1437 15.5604L26.2496 15.6654L26.3404 15.7854L26.4312 15.9355L26.5068 16.1005L26.5673 16.2956L26.6278 16.5056L26.6884 16.7157L26.7489 16.9257L26.8094 17.1358L26.8699 17.3458L26.9304 17.5559L26.9909 17.7659L27.0514 17.976L27.112 18.186L27.1725 18.3961L27.1725 18.4111L27.1725 18.4261L27.1725 18.4411L27.1725 18.4561L27.1725 18.4711L14.6309 18.4711L15.0091 17.2708L15.0545 17.1358L15.0998 17.0007L15.1452 16.8657L15.1906 16.7307L15.236 16.5956L15.2814 16.4606L15.3268 16.3256L15.3722 16.2055L15.4175 16.0855L15.4629 15.9655L15.5083 15.8454L15.5688 15.7404L15.6445 15.6354L15.7201 15.5454L15.8109 15.4704L15.9017 15.4103L16.0076 15.3653L16.1135 15.3203L16.2345 15.2903L16.3555 15.2903L16.3858 15.2753L16.416 15.2753L16.4463 15.2753L16.4766 15.2753L16.5068 15.2753L16.5522 15.2753L16.5825 15.2753L16.6278 15.2753L16.7186 15.3503ZM28.534 20.7366L28.6097 20.7366L28.7005 20.7066L28.7761 20.7066L28.8517 20.7066L28.9274 20.7066L29.003 20.7216L29.0787 20.7216L29.1543 20.7667L29.2148 20.7967L29.2753 20.8267L29.3359 20.8717L29.3964 20.9167L29.4418 20.9767L29.4871 21.0367L29.5325 21.0967L29.5628 21.1717L29.593 21.2468L29.6233 21.3218L29.6233 21.3968L29.6536 21.4868L29.6536 21.5768L29.6536 21.6219L29.6536 21.6669L29.6536 21.7119L29.6536 21.8169L29.6536 21.8619L29.6536 21.9069L29.6536 21.9519L29.6536 21.9969L29.6536 22.042L29.6536 22.192L29.6082 22.327L29.5628 22.4471L29.5023 22.5521L29.4266 22.6421L29.3359 22.7171L29.23 22.7771L29.1089 22.8222L28.9728 22.8522L28.8215 22.8522C28.6551 22.8672 28.5038 22.8672 28.3374 22.8672L28.171 22.8672L28.1256 22.8672L28.0802 22.8672L28.0348 22.8672L27.9592 22.8672L27.9138 22.8672L27.5053 22.8672L27.1271 22.8672L26.8548 22.8672L26.764 22.8672L26.4917 22.8672L26.4009 22.8672L26.3101 22.8672L26.2194 22.8672L26.1135 22.8672L26.0076 22.8372L25.9168 22.8071L25.826 22.7621L25.7352 22.7021L25.6596 22.6421L25.584 22.5671L25.5234 22.4921L25.4781 22.402L25.4478 22.312L25.4175 22.207L25.4175 22.102L25.4175 21.9969L25.4175 21.8919L25.4478 21.7869L25.4781 21.6969L25.5234 21.6069L25.584 21.5318L25.6596 21.4568L25.7352 21.3968L25.7655 21.3968L25.7958 21.3518L25.826 21.3518L25.8563 21.3068L25.9017 21.3068L25.947 21.2768L25.9924 21.2768L26.0378 21.2468L26.0832 21.2468L26.1286 21.2168C26.9304 21.0367 27.7322 20.8567 28.534 20.6916L28.534 20.7366ZM30.8487 17.5259L30.879 17.6159L30.879 17.6309L30.8941 17.6459L30.8941 17.6609L30.9092 17.6759L30.9092 17.6909L30.9244 17.7059L30.9244 17.7209L30.9395 17.7359L30.9395 17.7509L30.9546 17.7659L30.9849 17.8709L30.9849 17.976L31 18.081L31 18.171L30.9546 18.261L30.9092 18.3361L30.8487 18.4111L30.7731 18.4711L30.6823 18.5311L30.5764 18.5761L30.4402 18.6211L30.3041 18.6661L30.1679 18.7111L30.0318 18.7562L29.8956 18.8012L29.7595 18.8462L29.6233 18.8912L29.4871 18.9362L29.351 18.9812L29.2148 19.0262L29.1846 19.0262L29.1543 19.0262L29.1241 19.0262L29.0787 19.0412L29.0484 19.0412L29.0182 19.0862L29.0484 19.0862L29.0787 19.0862L29.1089 19.0862L29.1392 19.0862L29.1694 19.0862L29.2753 19.1763L29.3812 19.2663L29.4871 19.3563L29.593 19.4463L29.6989 19.5364L29.8048 19.6264L29.9107 19.7164L30.0166 19.8064L30.1225 19.8964L30.2284 19.9865L30.3192 20.0765L30.3949 20.1665L30.4554 20.2565L30.5159 20.3465L30.5613 20.4516L30.6067 20.5566L30.6369 20.6616L30.6369 20.7667L30.6672 20.8867L30.6672 21.0067L30.6672 26.6781L30.6672 26.7981L30.6369 26.9031L30.6067 26.9932L30.5613 27.0832L30.5008 27.1582L30.4251 27.2182L30.3495 27.2632L30.2587 27.2932L30.1528 27.2932L30.0318 27.3232C29.3207 27.3232 28.5946 27.3232 27.8835 27.3232L27.7625 27.3232L27.6566 27.2932L27.5658 27.2632L27.4902 27.2182L27.4145 27.1582L27.354 27.0832L27.3086 26.9932L27.2784 26.9031L27.2784 26.7981L27.2481 26.6781L27.2481 26.5281L27.2481 26.453L27.2481 26.378L27.2481 26.303L27.2481 26.228L27.2481 26.153L27.2481 26.0029L27.2481 25.9279C27.2481 25.8679 27.2481 25.7929 27.2481 25.7329L27.2481 25.6878L27.2481 25.6578L27.2481 25.6278L27.233 25.5978L27.233 25.5828L27.2027 25.5678L27.1725 25.5678L27.1422 25.5528L27.112 25.5528L27.0666 25.5528L27.0514 25.5528L27.0212 25.5528L27.0061 25.5528L26.9909 25.5528L14.8578 25.5528L14.7973 25.5528L14.7519 25.5528L14.7216 25.5678L14.6914 25.5678L14.6762 25.6128L14.6762 25.6428L14.6611 25.6878L14.6611 25.7479L14.6611 25.8229L14.6611 26.0479L14.6611 26.0929L14.6611 26.273L14.6611 26.378L14.6611 26.498L14.6611 26.6031L14.6611 26.6631L14.6611 26.7231L14.6611 26.7831L14.6611 26.8431L14.6309 26.9482L14.5855 27.0532L14.525 27.1432L14.4796 27.1882L14.3434 27.2632L14.2829 27.2632L14.1165 27.3082C13.3752 27.3082 12.6339 27.3082 11.8926 27.3082L11.7867 27.3082L11.6959 27.2782L11.6051 27.2482L11.5295 27.2032L11.469 27.1432L11.4085 27.0832L11.3631 27.0082L11.3328 26.9181L11.3026 26.8281L11.3026 26.7231L11.3026 26.6181C11.3026 24.7876 11.3026 22.9572 11.3026 21.1417L11.3026 21.0067L11.3177 20.8717L11.348 20.7366L11.3782 20.6166L11.4236 20.4966L11.4841 20.3766L11.5446 20.2715L11.6203 20.1665L11.711 20.0615L11.8169 19.9715L11.9228 19.8814L12.0287 19.7914L12.1346 19.7014L12.2405 19.6114L12.3464 19.5063L12.4523 19.4013L12.5582 19.2963L12.6641 19.1913L12.77 19.0862L12.8759 18.9812L12.7549 18.9362L12.528 18.8612L12.3162 18.7862L12.2708 18.7862L12.059 18.6961L11.9985 18.6961L11.7867 18.6061L11.7564 18.6061L11.6808 18.5761L11.5749 18.5461L11.5295 18.5461L11.4387 18.5011L11.348 18.4711L11.2572 18.4261L11.1815 18.3661L11.121 18.306L11.0756 18.231L11.0303 18.156L11 18.066L11 17.976L11 17.8859L11 17.7959L11.0454 17.6909L11.0454 17.6609L11.0605 17.6309L11.0605 17.6009L11.0756 17.5709L11.0756 17.5409L11.0908 17.5109L11.0908 17.4808L11.1059 17.4508L11.1059 17.4208L11.121 17.3908L11.1513 17.3008L11.1967 17.2258L11.2421 17.1658L11.3026 17.1058L11.3631 17.0607L11.4236 17.0307L11.4992 17.0007L11.5749 17.0007L11.6505 16.9707L11.7413 16.9707L11.938 16.9707L12.1346 16.9707L12.3313 16.9707L12.528 16.9707L12.7247 16.9707L12.9213 16.9707L13.118 16.9707L13.3147 16.9707L13.5113 16.9707L13.708 16.9707L13.7685 16.9707L13.8139 16.9707L13.8593 16.9707L13.9047 16.9707L13.9349 16.9407L13.9652 16.9107L13.9955 16.8807L14.0257 16.8357L14.0257 16.7907L14.0711 16.7307L14.1316 16.5356L14.1921 16.3406L14.2526 16.1455L14.3132 15.9505L14.3737 15.7554L14.4342 15.5604L14.4947 15.3653L14.5552 15.1853L14.6157 14.9902L14.6762 14.8102L14.7368 14.6602L14.8124 14.5251L14.9032 14.4051L15.0091 14.3001L15.115 14.2101L15.236 14.135L15.3722 14.075L15.5234 14.03L15.6747 14L15.8412 14L26.1286 14L26.3253 14L26.5068 14.03L26.6732 14.075L26.8245 14.135L26.9607 14.2251L27.0817 14.3301L27.1876 14.4501L27.2784 14.6001L27.354 14.7652L27.4145 14.9602L27.475 15.1403L27.5356 15.3203L27.5961 15.5004L27.6566 15.6804L27.7171 15.8605L27.7776 16.0405L27.8381 16.2205L27.8986 16.4006L27.9592 16.5806L28.0197 16.7607L28.0197 16.8057L28.0499 16.8357L28.0499 16.8657L28.0802 16.8957L28.0802 16.9107L28.1256 16.9107L28.1558 16.9107L28.1861 16.9257L28.2163 16.9257L28.2617 16.9257L28.4584 16.9257L28.6551 16.9257L29.0484 16.9257L29.2451 16.9257L29.4418 16.9257L29.6384 16.9257L29.8351 16.9257L30.0318 16.9257L30.2284 16.9257L30.3192 16.9257L30.41 16.9257L30.4856 16.9557L30.5613 16.9857L30.6369 17.0307L30.6974 17.0757L30.7579 17.1358L30.8033 17.2108L30.8487 17.2858L30.8487 17.5259Z" fill="#3C2626"/>
<path d="M42 21C42 32.598 32.598 42 21 42C9.40202 42 0 32.598 0 21C0 9.40202 9.40202 0 21 0C32.598 0 42 9.40202 42 21ZM3.78 21C3.78 30.5103 11.4897 38.22 21 38.22C30.5103 38.22 38.22 30.5103 38.22 21C38.22 11.4897 30.5103 3.78 21 3.78C11.4897 3.78 3.78 11.4897 3.78 21Z" fill="#2F1C1C" fill-opacity="0.1412"/>
<path d="M40.11 21C41.1538 21 42.0088 20.1521 41.915 19.1125C41.7245 17.0018 41.2153 14.9283 40.4015 12.9636C39.3461 10.4158 37.7993 8.10079 35.8492 6.15076C33.8992 4.20073 31.5842 2.65388 29.0364 1.59853C27.0717 0.784729 24.9982 0.275476 22.8875 0.084993C21.8479 -0.00882501 21 0.846182 21 1.89C21 2.93382 21.8487 3.76928 22.8862 3.88362C24.5001 4.06147 26.0839 4.46703 27.5898 5.0908C29.679 5.95618 31.5774 7.2246 33.1764 8.82362C34.7754 10.4226 36.0438 12.321 36.9092 14.4102C37.533 15.9161 37.9385 17.4999 38.1164 19.1138C38.2307 20.1513 39.0662 21 40.11 21Z" fill="#008448"/>
<path d="M40.11 21C41.1538 21 42.0088 20.1521 41.915 19.1125C41.7245 17.0018 41.2153 14.9283 40.4015 12.9636C39.3461 10.4158 37.7993 8.10079 35.8492 6.15076C33.8992 4.20073 31.5842 2.65388 29.0364 1.59853C27.0717 0.784729 24.9982 0.275476 22.8875 0.084993C21.8479 -0.00882501 21 0.846182 21 1.89C21 2.93382 21.8487 3.76928 22.8862 3.88362C24.5001 4.06147 26.0839 4.46703 27.5898 5.0908C29.679 5.95618 31.5774 7.2246 33.1764 8.82362C34.7754 10.4226 36.0438 12.321 36.9092 14.4102C37.533 15.9161 37.9385 17.4999 38.1164 19.1138C38.2307 20.1513 39.0662 21 40.11 21Z" fill="#008448"/>
</svg>
