<svg width="24" height="24" viewBox="0 0 24 24" fill="none" xmlns="http://www.w3.org/2000/svg">
<path class="icon-color-fill" d="M14.6386 20.4153L10.7348 16.5115L11.7886 15.4577L14.6386 18.3077L20.3079 12.6384L21.3617 13.6923L14.6386 20.4153ZM19.6386 10.8461H18.1386V6.15385C18.1386 6.07691 18.1066 6.00639 18.0425 5.94227C17.9784 5.87817 17.9079 5.84612 17.8309 5.84612H15.6386V8.46147H6.63867V5.84612H4.44637C4.36944 5.84612 4.29891 5.87817 4.2348 5.94227C4.1707 6.00639 4.13865 6.07691 4.13865 6.15385V19.5384C4.13865 19.6153 4.1707 19.6859 4.2348 19.75C4.29891 19.8141 4.36944 19.8461 4.44637 19.8461H10.1386V21.3461H4.44637C3.94766 21.3461 3.5217 21.1695 3.1685 20.8163C2.81528 20.4631 2.63867 20.0371 2.63867 19.5384V6.15385C2.63867 5.65513 2.81528 5.22917 3.1685 4.87597C3.5217 4.52275 3.94766 4.34614 4.44637 4.34614H8.85215C8.99061 3.85898 9.27362 3.45515 9.70117 3.13465C10.1287 2.81413 10.6079 2.65387 11.1386 2.65387C11.6899 2.65387 12.1768 2.81413 12.5992 3.13465C13.0216 3.45515 13.3021 3.85898 13.4405 4.34614H17.8309C18.3296 4.34614 18.7556 4.52275 19.1088 4.87597C19.462 5.22917 19.6386 5.65513 19.6386 6.15385V10.8461ZM11.1386 5.96152C11.3963 5.96152 11.6114 5.8753 11.7838 5.70287C11.9563 5.53044 12.0425 5.31537 12.0425 5.05767C12.0425 4.79999 11.9563 4.58493 11.7838 4.4125C11.6114 4.24006 11.3963 4.15385 11.1386 4.15385C10.881 4.15385 10.6659 4.24006 10.4935 4.4125C10.321 4.58493 10.2348 4.79999 10.2348 5.05767C10.2348 5.31537 10.321 5.53044 10.4935 5.70287C10.6659 5.8753 10.881 5.96152 11.1386 5.96152Z" fill="currentColor"/>
</svg>
