<svg class="navigation__icon" width="32" height="32" viewBox="0 0 24 24" fill="none" xmlns="http://www.w3.org/2000/svg">
                <path class="icon-color-fill" fill-rule="evenodd" clip-rule="evenodd" d="M7.14372 12.3218L7.26475 12.3818L7.37065 12.4568L7.46142 12.5318L7.53707 12.6219L7.59758 12.7269L7.64296 12.8319L7.67322 12.9519L7.67322 13.072L7.67322 13.207L7.64296 13.327L7.59758 13.4471L7.53707 13.5521L7.46142 13.6421L7.38578 13.7171L7.29501 13.7921L7.18911 13.8522L7.06808 13.8972L6.94705 13.9272L6.81089 13.9272C6.64448 13.9272 6.49319 13.9272 6.32678 13.9272C6.19062 13.9272 6.05446 13.9272 5.91831 13.9272L5.52496 13.9272L5.31316 13.9272L4.90469 13.9272L4.79879 13.9272L4.58699 13.9272L4.48109 13.9272L4.37519 13.9272L4.26929 13.9272L4.10287 13.9272L3.95159 13.8822L3.81543 13.8372L3.6944 13.7771L3.5885 13.6871L3.51286 13.5821L3.45234 13.4621L3.40696 13.327L3.3767 13.177L3.3767 13.012L3.3767 12.9669L3.3767 12.9219L3.3767 12.8769L3.3767 12.8319L3.3767 12.7869L3.3767 12.7419L3.3767 12.6969L3.3767 12.6069L3.3767 12.5618L3.3767 12.4718L3.39183 12.3818L3.39183 12.3068L3.43722 12.2318L3.46747 12.1567L3.49773 12.0817L3.54312 12.0217L3.5885 11.9617L3.63389 11.9017L3.6944 11.8567L3.75492 11.8117L3.81543 11.7817L3.87595 11.7516L3.95159 11.7216L4.02723 11.7216L4.10287 11.6916L4.17852 11.6916L4.25416 11.6916L4.3298 11.6916L4.40545 11.7066L4.57186 11.7366L4.73828 11.7666L4.90469 11.7967L5.0711 11.8267L5.23752 11.8567L5.40393 11.8867L5.57035 11.9167L5.73676 11.9467L5.90318 11.9767L6.06959 12.0067L6.79576 12.1717L6.82602 12.1717L6.85628 12.1717L6.88654 12.1717L6.91679 12.1717L6.94705 12.1717L6.97731 12.1717L7.00756 12.1717L7.03782 12.1717L7.06808 12.1717L7.09834 12.1717L7.23449 12.2168L7.14372 12.3218ZM9.36762 12.6069L14.7837 12.6069L14.8593 12.6219L14.9198 12.6519L14.9803 12.6819L15.0257 12.7269L15.0711 12.7719L15.1014 12.8319L15.1316 12.8919L15.1316 12.9669L15.1467 13.042L15.1467 13.5521L15.1316 13.6271L15.1014 13.6871L15.0711 13.7471L15.0257 13.7921L14.9803 13.8372L14.9198 13.8672L14.8593 13.8972L14.7837 13.8972L14.708 13.9272L9.29198 13.9272L9.23147 13.8972L9.17095 13.8672L9.11044 13.8372L9.06505 13.7921L9.01967 13.7471L8.98941 13.6871L8.95915 13.6271L8.95915 13.5521L8.94402 13.4771L8.94402 12.9669L8.95915 12.8919L8.98941 12.8319L9.01967 12.7719L9.06505 12.7269L9.11044 12.6819L9.17095 12.6519L9.23147 12.6219L9.29198 12.6219L9.36762 12.6069ZM7.71861 6.35033L16.357 6.35033L16.5537 6.35033L16.7352 6.38034L16.8865 6.42535L17.0227 6.48536L17.1437 6.56038L17.2496 6.66541L17.3404 6.78544L17.4312 6.93547L17.5068 7.10051L17.5673 7.29556L17.6278 7.50561L17.6884 7.71566L17.7489 7.92571L17.8094 8.13576L17.8699 8.34582L17.9304 8.55587L17.9909 8.76592L18.0514 8.97597L18.112 9.18602L18.1725 9.39607L18.1725 9.41108L18.1725 9.42608L18.1725 9.44108L18.1725 9.45609L18.1725 9.47109L5.63086 9.47109L6.00908 8.2708L6.05446 8.13576L6.09985 8.00073L6.14523 7.8657L6.19062 7.73067L6.23601 7.59563L6.28139 7.4606L6.32678 7.32557L6.37216 7.20554L6.41755 7.08551L6.46294 6.96548L6.50832 6.84545L6.56884 6.74042L6.64448 6.6354L6.72012 6.54538L6.81089 6.47036L6.90166 6.41034L7.00756 6.36533L7.11347 6.32032L7.23449 6.29031L7.35552 6.29031L7.38578 6.27531L7.41604 6.27531L7.44629 6.27531L7.47655 6.27531L7.50681 6.27531L7.55219 6.27531L7.58245 6.27531L7.62784 6.27531L7.71861 6.35033ZM19.534 11.7366L19.6097 11.7366L19.7005 11.7066L19.7761 11.7066L19.8517 11.7066L19.9274 11.7066L20.003 11.7216L20.0787 11.7216L20.1543 11.7667L20.2148 11.7967L20.2753 11.8267L20.3359 11.8717L20.3964 11.9167L20.4418 11.9767L20.4871 12.0367L20.5325 12.0967L20.5628 12.1717L20.593 12.2468L20.6233 12.3218L20.6233 12.3968L20.6536 12.4868L20.6536 12.5768L20.6536 12.6219L20.6536 12.6669L20.6536 12.7119L20.6536 12.8169L20.6536 12.8619L20.6536 12.9069L20.6536 12.9519L20.6536 12.9969L20.6536 13.042L20.6536 13.192L20.6082 13.327L20.5628 13.4471L20.5023 13.5521L20.4266 13.6421L20.3359 13.7171L20.23 13.7771L20.1089 13.8222L19.9728 13.8522L19.8215 13.8522C19.6551 13.8672 19.5038 13.8672 19.3374 13.8672L19.171 13.8672L19.1256 13.8672L19.0802 13.8672L19.0348 13.8672L18.9592 13.8672L18.9138 13.8672L18.5053 13.8672L18.1271 13.8672L17.8548 13.8672L17.764 13.8672L17.4917 13.8672L17.4009 13.8672L17.3101 13.8672L17.2194 13.8672L17.1135 13.8672L17.0076 13.8372L16.9168 13.8071L16.826 13.7621L16.7352 13.7021L16.6596 13.6421L16.584 13.5671L16.5234 13.4921L16.4781 13.402L16.4478 13.312L16.4175 13.207L16.4175 13.102L16.4175 12.9969L16.4175 12.8919L16.4478 12.7869L16.4781 12.6969L16.5234 12.6069L16.584 12.5318L16.6596 12.4568L16.7352 12.3968L16.7655 12.3968L16.7958 12.3518L16.826 12.3518L16.8563 12.3068L16.9017 12.3068L16.947 12.2768L16.9924 12.2768L17.0378 12.2468L17.0832 12.2468L17.1286 12.2168C17.9304 12.0367 18.7322 11.8567 19.534 11.6916L19.534 11.7366ZM21.8487 8.52586L21.879 8.61588L21.879 8.63089L21.8941 8.64589L21.8941 8.66089L21.9092 8.6759L21.9092 8.6909L21.9244 8.7059L21.9244 8.72091L21.9395 8.73591L21.9395 8.75091L21.9546 8.76592L21.9849 8.87094L21.9849 8.97597L22 9.08099L22 9.17102L21.9546 9.26104L21.9092 9.33606L21.8487 9.41108L21.7731 9.47109L21.6823 9.53111L21.5764 9.57612L21.4402 9.62113L21.3041 9.66614L21.1679 9.71115L21.0318 9.75616L20.8956 9.80117L20.7595 9.84618L20.6233 9.89119L20.4871 9.9362L20.351 9.98121L20.2148 10.0262L20.1846 10.0262L20.1543 10.0262L20.1241 10.0262L20.0787 10.0412L20.0484 10.0412L20.0182 10.0862L20.0484 10.0862L20.0787 10.0862L20.1089 10.0862L20.1392 10.0862L20.1694 10.0862L20.2753 10.1763L20.3812 10.2663L20.4871 10.3563L20.593 10.4463L20.6989 10.5364L20.8048 10.6264L20.9107 10.7164L21.0166 10.8064L21.1225 10.8964L21.2284 10.9865L21.3192 11.0765L21.3949 11.1665L21.4554 11.2565L21.5159 11.3465L21.5613 11.4516L21.6067 11.5566L21.6369 11.6616L21.6369 11.7667L21.6672 11.8867L21.6672 12.0067L21.6672 17.6781L21.6672 17.7981L21.6369 17.9031L21.6067 17.9932L21.5613 18.0832L21.5008 18.1582L21.4251 18.2182L21.3495 18.2632L21.2587 18.2932L21.1528 18.2932L21.0318 18.3232C20.3207 18.3232 19.5946 18.3232 18.8835 18.3232L18.7625 18.3232L18.6566 18.2932L18.5658 18.2632L18.4902 18.2182L18.4145 18.1582L18.354 18.0832L18.3086 17.9932L18.2784 17.9031L18.2784 17.7981L18.2481 17.6781L18.2481 17.5281L18.2481 17.453L18.2481 17.378L18.2481 17.303L18.2481 17.228L18.2481 17.153L18.2481 17.0029L18.2481 16.9279C18.2481 16.8679 18.2481 16.7929 18.2481 16.7329L18.2481 16.6878L18.2481 16.6578L18.2481 16.6278L18.233 16.5978L18.233 16.5828L18.2027 16.5678L18.1725 16.5678L18.1422 16.5528L18.112 16.5528L18.0666 16.5528L18.0514 16.5528L18.0212 16.5528L18.0061 16.5528L17.9909 16.5528L5.85779 16.5528L5.79728 16.5528L5.75189 16.5528L5.72163 16.5678L5.69138 16.5678L5.67625 16.6128L5.67625 16.6428L5.66112 16.6878L5.66112 16.7479L5.66112 16.8229L5.66112 17.0479L5.66112 17.0929L5.66112 17.273L5.66112 17.378L5.66112 17.498L5.66112 17.6031L5.66112 17.6631L5.66112 17.7231L5.66112 17.7831L5.66112 17.8431L5.63086 17.9482L5.58548 18.0532L5.52496 18.1432L5.47958 18.1882L5.34342 18.2632L5.2829 18.2632L5.11649 18.3082C4.37519 18.3082 3.63389 18.3082 2.89259 18.3082L2.78669 18.3082L2.69591 18.2782L2.60514 18.2482L2.5295 18.2032L2.46899 18.1432L2.40847 18.0832L2.36309 18.0082L2.33283 17.9181L2.30257 17.8281L2.30257 17.7231L2.30257 17.6181C2.30257 15.7876 2.30257 13.9572 2.30257 12.1417L2.30257 12.0067L2.3177 11.8717L2.34796 11.7366L2.37822 11.6166L2.4236 11.4966L2.48412 11.3766L2.54463 11.2715L2.62027 11.1665L2.71104 11.0615L2.81694 10.9715L2.92284 10.8814L3.02874 10.7914L3.13465 10.7014L3.24055 10.6114L3.34644 10.5063L3.45234 10.4013L3.55824 10.2963L3.66414 10.1913L3.77005 10.0862L3.87595 9.98121L3.75492 9.9362L3.52799 9.86118L3.31619 9.78617L3.2708 9.78617L3.059 9.69614L2.99849 9.69614L2.78669 9.60612L2.75643 9.60612L2.68079 9.57612L2.57489 9.54611L2.5295 9.54611L2.43873 9.5011L2.34796 9.47109L2.25719 9.42608L2.18154 9.36606L2.12103 9.30605L2.07564 9.23103L2.03026 9.15601L2 9.06599L2 8.97597L2 8.88595L2.04539 8.6909L2.04539 8.66089L2.06051 8.63088L2.06051 8.60088L2.07564 8.57087L2.07564 8.54086L2.09077 8.51086L2.09077 8.48085L2.1059 8.45084L2.1059 8.42083L2.12103 8.39083L2.15129 8.3008L2.19667 8.22579L2.24206 8.16577L2.30257 8.10576L2.36309 8.06075L2.4236 8.03074L2.49924 8.00073L2.57489 8.00073L2.65053 7.97072L2.7413 7.97072L2.93797 7.97072L3.13465 7.97072L3.33132 7.97072L3.52799 7.97072L3.72466 7.97072L3.92133 7.97072L4.118 7.97072L4.31467 7.97072L4.51135 7.97072L4.70802 7.97072L4.76853 7.97072L4.81392 7.97072L4.8593 7.97072L4.90469 7.97072L4.93495 7.94072L4.9652 7.91071L4.99546 7.8807L5.02572 7.83569L5.02572 7.79068L5.0711 7.73067L5.13162 7.53562L5.19213 7.34057L5.25265 7.14552L5.31316 6.95047L5.37368 6.75543L5.43419 6.56038L5.49471 6.36533L5.55522 6.18529L5.61573 5.99024L5.67625 5.8102L5.73676 5.66016L5.8124 5.52513L5.90318 5.4051L6.00908 5.30007L6.11498 5.21005L6.23601 5.13503L6.37216 5.07502L6.52345 5.03001L6.67474 5L6.84115 5L17.1286 5L17.3253 5L17.5068 5.03001L17.6732 5.07502L17.8245 5.13503L17.9607 5.22505L18.0817 5.33008L18.1876 5.45011L18.2784 5.60015L18.354 5.76519L18.4145 5.96023L18.475 6.14028L18.5356 6.32032L18.5961 6.50037L18.6566 6.68041L18.7171 6.86045L18.7776 7.0405L18.8381 7.22054L18.8986 7.40059L18.9592 7.58063L19.0197 7.76067L19.0197 7.80568L19.0499 7.83569L19.0499 7.8657L19.0802 7.89571L19.0802 7.91071L19.1256 7.91071L19.1558 7.91071L19.1861 7.92571L19.2163 7.92571L19.2617 7.92571L19.4584 7.92571L19.6551 7.92571L20.0484 7.92571L20.2451 7.92571L20.4418 7.92571L20.6384 7.92571L20.8351 7.92571L21.0318 7.92571L21.2284 7.92571L21.3192 7.92571L21.41 7.92571L21.4856 7.95572L21.5613 7.98573L21.6369 8.03074L21.6974 8.07575L21.7579 8.13576L21.8033 8.21078L21.8487 8.2858L21.8487 8.52586Z" fill="currentColor"></path>
            </svg>