<svg width="24" height="24" viewBox="0 0 24 24" fill="none" xmlns="http://www.w3.org/2000/svg">
<path class="icon-color-fill" d="M19.2107 5.63153H5.31596C4.89415 5.63153 4.4987 5.51871 4.15813 5.32176V20.6839C4.15813 21.3236 4.67645 21.842 5.31596 21.842H19.2107V5.63153ZM20.1992 4.64311C20.3038 4.74798 20.3686 4.89278 20.3686 5.05251V22.421C20.3686 22.7408 20.1094 23 19.7898 23H5.31586C4.03705 23 3 21.9635 3 20.6841V3.31566C3 2.0365 4.03705 1 5.31586 1H18.6315C18.9514 1 19.2105 1.25917 19.2105 1.57882V4.47369H19.7896C19.9493 4.47369 20.0943 4.53843 20.1992 4.64311ZM18.0528 4.47379V2.15793H5.31576C4.67625 2.15793 4.15793 2.67606 4.15793 3.31576C4.15793 3.95547 4.67625 4.47379 5.31576 4.47379H18.0528Z" fill="currentColor"/>
<path class="icon-color-fill" d="M11.2294 15.5263C11.2294 14.7447 11.2959 14.1827 11.4289 13.8401C11.5619 13.4976 11.844 13.1237 12.2752 12.7184C12.6514 12.3711 12.9381 12.0695 13.1353 11.8138C13.3326 11.5581 13.4312 11.2662 13.4312 10.9382C13.4312 10.5425 13.305 10.2145 13.0528 9.95395C12.8005 9.69342 12.4495 9.56316 12 9.56316C11.5321 9.56316 11.1766 9.71272 10.9335 10.0118C10.6904 10.311 10.5183 10.6149 10.4174 10.9237L9 10.2868C9.19266 9.6693 9.54587 9.13377 10.0596 8.68026C10.5734 8.22675 11.2202 8 12 8C12.9633 8 13.7041 8.28224 14.2225 8.84671C14.7408 9.41118 15 10.089 15 10.8803C15 11.3627 14.9014 11.7752 14.7041 12.1178C14.5069 12.4603 14.1972 12.8487 13.7752 13.2829C13.3257 13.7364 13.0528 14.0814 12.9564 14.3178C12.8601 14.5542 12.8119 14.957 12.8119 15.5263H11.2294ZM12 19C11.6972 19 11.4381 18.8866 11.2225 18.6599C11.0069 18.4331 10.8991 18.1605 10.8991 17.8421C10.8991 17.5237 11.0069 17.2511 11.2225 17.0243C11.4381 16.7976 11.6972 16.6842 12 16.6842C12.3028 16.6842 12.5619 16.7976 12.7775 17.0243C12.9931 17.2511 13.1009 17.5237 13.1009 17.8421C13.1009 18.1605 12.9931 18.4331 12.7775 18.6599C12.5619 18.8866 12.3028 19 12 19Z" fill="currentColor"/>
</svg>
