<svg width="42" height="42" viewBox="0 0 42 42" fill="none" xmlns="http://www.w3.org/2000/svg">
<rect x="2" y="2" width="38" height="38" rx="19" stroke="#0093DD" stroke-width="4"/>
<path d="M14.9564 15.1371L13.8193 14C11.9969 15.8069 11 18.2212 11 20.7913C11 23.3614 11.9969 25.7757 13.8193 27.5826L14.9564 26.4455C13.4455 24.9346 12.6199 22.9252 12.6199 20.7913C12.6199 18.6573 13.4455 16.648 14.9564 15.1371Z" fill="#3C2626"/>
<path d="M16.5296 16.3209C15.3302 17.5202 14.676 19.109 14.676 20.7913C14.676 22.4735 15.3302 24.0779 16.5296 25.2617L17.6667 24.1246C16.7788 23.2368 16.2804 22.053 16.2804 20.7913C16.2804 19.5296 16.7632 18.3458 17.6667 17.4579L16.5296 16.3209Z" fill="#3C2626"/>
<path d="M28.1807 14L27.0436 15.1371C28.5545 16.648 29.3801 18.6573 29.3801 20.7913C29.3801 22.9252 28.5545 24.9346 27.0436 26.4455L28.1807 27.5826C29.9875 25.7757 31 23.3614 31 20.7913C31 18.2212 30.0031 15.8069 28.1807 14Z" fill="#3C2626"/>
<path d="M25.4548 16.3209L24.3178 17.4579C25.2056 18.3458 25.7041 19.5296 25.7041 20.7913C25.7041 22.053 25.2212 23.2368 24.3178 24.1246L25.4548 25.2617C26.6542 24.0623 27.3084 22.4735 27.3084 20.7913C27.3084 19.109 26.6542 17.5047 25.4548 16.3209Z" fill="#3C2626"/>
<path d="M21.0156 18.5327C20.4393 18.5327 19.8629 18.7508 19.4112 19.2025C18.5234 20.0903 18.5234 21.5234 19.4112 22.4112C19.8474 22.8474 20.4393 23.081 21.0156 23.081C21.5919 23.081 22.1682 22.8629 22.6199 22.4112C23.5078 21.5234 23.5078 20.0903 22.6199 19.2025C22.1838 18.7664 21.5919 18.5327 21.0156 18.5327ZM21.4673 21.2586C21.2959 21.4299 21.109 21.4455 21.0156 21.4455C20.9221 21.4455 20.7196 21.4143 20.5639 21.2586C20.3146 21.0093 20.3146 20.5888 20.5639 20.3396C20.7352 20.1682 20.9221 20.1526 21.0156 20.1526C21.109 20.1526 21.3115 20.1838 21.4673 20.3396C21.7165 20.5888 21.7165 21.0093 21.4673 21.2586Z" fill="#3C2626"/>
</svg>
