<svg width="24" height="24" viewBox="0 0 24 24" fill="none" xmlns="http://www.w3.org/2000/svg">
<path class="icon-color-fill" fill="currentColor" d="M10.0667 20.4946L6.86667 17.3612C6.53333 17.6279 6.15 17.839 5.71667 17.9946C5.28333 18.1501 4.82222 18.2279 4.33333 18.2279C3.12222 18.2279 2.09722 17.8085 1.25833 16.9696C0.419445 16.1307 0 15.1057 0 13.8946C0 12.6835 0.419445 11.6585 1.25833 10.8196C2.09722 9.98069 3.12222 9.56124 4.33333 9.56124C5.54444 9.56124 6.56944 9.98069 7.40833 10.8196C8.24722 11.6585 8.66667 12.6835 8.66667 13.8946C8.66667 14.3835 8.58889 14.8446 8.43333 15.2779C8.27778 15.7112 8.06667 16.0946 7.8 16.4279L11 19.5612L10.0667 20.4946ZM4.33333 16.8946C5.16667 16.8946 5.875 16.6029 6.45833 16.0196C7.04167 15.4362 7.33333 14.7279 7.33333 13.8946C7.33333 13.0612 7.04167 12.3529 6.45833 11.7696C5.875 11.1862 5.16667 10.8946 4.33333 10.8946C3.5 10.8946 2.79167 11.1862 2.20833 11.7696C1.625 12.3529 1.33333 13.0612 1.33333 13.8946C1.33333 14.7279 1.625 15.4362 2.20833 16.0196C2.79167 16.6029 3.5 16.8946 4.33333 16.8946Z"/>
<path class="icon-color-fill" fill="currentColor" fill-rule="evenodd" clip-rule="evenodd" d="M3.98239 4H21.433C22.3285 4 23.0718 4.73575 23.0718 5.65938V14.2116C23.0718 15.1352 22.3452 15.871 21.433 15.871L9.75715 15.8823C9.95259 15.2903 10.0583 14.6575 10.0583 14C10.0583 13.4755 9.99106 12.9668 9.86464 12.4819H9.89517V5.38125H9.43906V11.3422C9.30165 11.0645 9.14337 10.799 8.96628 10.5477V5.38125H8.15517V9.61636C8.03575 9.5047 7.91175 9.39787 7.78351 9.29616V5.38125H7.42851V9.03521C7.24946 8.91344 7.06348 8.80109 6.87128 8.69889V5.38125H6.51628V8.52493C6.38359 8.46527 6.24833 8.41029 6.11073 8.3602V5.38125H5.50239V8.17491C5.03986 8.06063 4.55619 8 4.05835 8C3.46245 8 2.88685 8.08687 2.34351 8.24863V5.65938C2.34351 4.75263 3.07017 4 3.98239 4ZM20.9941 5.38125H19.8365L19.8484 14.4397L20.9941 14.4316V5.38125ZM18.9496 12.4819V5.38125H18.1385V12.4819H18.9496ZM17.48 12.4819V5.38125H16.5002V12.4819H17.48ZM13.733 12.4819V5.38125H12.4118V12.4819H13.733ZM15.5974 5.38125H14.4391V12.4819H15.5974V5.38125ZM11.6327 12.4819V5.38125H10.4863V12.4819H11.6327Z"/>
</svg>
